<?xml version="1.0" encoding="UTF-8" standalone="no"?>
<!-- Uploaded to: SVG Repo, www.svgrepo.com, Generator: SVG Repo Mixer Tools -->

<svg
   fill="#000000"
   height="24"
   width="24"
   version="1.1"
   id="Capa_1"
   viewBox="0 0 6.52497 6.52497"
   xml:space="preserve"
   sodipodi:docname="bluetooth.svg"
   inkscape:version="1.2.2 (b0a8486, 2022-12-01)"
   xmlns:inkscape="http://www.inkscape.org/namespaces/inkscape"
   xmlns:sodipodi="http://sodipodi.sourceforge.net/DTD/sodipodi-0.dtd"
   xmlns="http://www.w3.org/2000/svg"
   xmlns:svg="http://www.w3.org/2000/svg"><defs
   id="defs268" /><sodipodi:namedview
   id="namedview266"
   pagecolor="#ffffff"
   bordercolor="#666666"
   borderopacity="1.0"
   inkscape:showpageshadow="2"
   inkscape:pageopacity="0.0"
   inkscape:pagecheckerboard="0"
   inkscape:deskcolor="#d1d1d1"
   showgrid="false"
   inkscape:zoom="14.639385"
   inkscape:cx="2.4249652"
   inkscape:cy="16.76983"
   inkscape:window-width="1502"
   inkscape:window-height="1341"
   inkscape:window-x="61"
   inkscape:window-y="25"
   inkscape:window-maximized="0"
   inkscape:current-layer="Capa_1" />
<g
   id="g263"
   transform="matrix(0.03000005,0,0,0.03000005,-0.12302289,0.00134137)"
   style="fill:#ffffff">
	<path
   d="m 123.264,108.749 45.597,-44.488 c 1.736,-1.693 2.715,-4.016 2.715,-6.441 0,-2.425 -0.979,-4.748 -2.715,-6.441 L 118.823,2.559 c -2.591,-2.528 -6.444,-3.255 -9.78,-1.853 -3.336,1.406 -5.505,4.674 -5.505,8.294 v 80.504 l -42.331,-41.3 c -3.558,-3.471 -9.255,-3.402 -12.727,0.156 -3.471,3.558 -3.401,9.256 0.157,12.727 l 48.851,47.663 -48.851,47.663 c -3.558,3.471 -3.628,9.169 -0.157,12.727 3.471,3.558 9.17,3.628 12.727,0.156 l 42.331,-41.3 V 208.5 c 0,3.62 2.169,6.888 5.505,8.294 1.128,0.476 2.315,0.706 3.493,0.706 2.305,0 4.572,-0.886 6.287,-2.559 l 50.038,-48.82 c 1.736,-1.693 2.715,-4.016 2.715,-6.441 0,-2.425 -0.979,-4.748 -2.715,-6.441 z m -1.725,-78.395 28.15,27.465 -28.15,27.465 z m 0,156.789 v -54.93 l 28.15,27.465 z"
   id="path261"
   style="fill:#ffffff" />
</g>
</svg>
