<?xml version="1.0" encoding="UTF-8" standalone="no"?>
<!-- Created with Inkscape (http://www.inkscape.org/) -->

<svg
   width="539"
   height="253.701"
   viewBox="0 0 142.61082 67.125479"
   version="1.1"
   id="svg5"
   xml:space="preserve"
   inkscape:version="1.2.2 (b0a8486, 2022-12-01)"
   sodipodi:docname="connect.svg"
   xmlns:inkscape="http://www.inkscape.org/namespaces/inkscape"
   xmlns:sodipodi="http://sodipodi.sourceforge.net/DTD/sodipodi-0.dtd"
   xmlns="http://www.w3.org/2000/svg"
   xmlns:svg="http://www.w3.org/2000/svg"><sodipodi:namedview
     id="namedview7"
     pagecolor="#ffffff"
     bordercolor="#666666"
     borderopacity="1.0"
     inkscape:showpageshadow="2"
     inkscape:pageopacity="0.0"
     inkscape:pagecheckerboard="0"
     inkscape:deskcolor="#d1d1d1"
     inkscape:document-units="mm"
     showgrid="false"
     inkscape:zoom="2.6511273"
     inkscape:cx="235.37157"
     inkscape:cy="174.07689"
     inkscape:window-width="1431"
     inkscape:window-height="989"
     inkscape:window-x="1129"
     inkscape:window-y="162"
     inkscape:window-maximized="0"
     inkscape:current-layer="g683" /><defs
     id="defs2"><style
       id="style605">.a{fill:#ffffff;}.b{fill:#211715;}.c{fill:#88c5e9;}.d{fill:#fec578;}.e{fill:#74c66d;}.f{fill:#cfcfcf;}</style><style
       type="text/css"
       id="style2">
   <![CDATA[
    .fil1 {fill:#005B96}
    .fil2 {fill:#6497B1}
    .fil0 {fill:#F0F0F0;fill-rule:nonzero}
   ]]>
  </style><style
       type="text/css"
       id="style1802">
   <![CDATA[
    .fil1 {fill:#005B96}
    .fil2 {fill:#6497B1}
    .fil0 {fill:#F0F0F0;fill-rule:nonzero}
   ]]>
  </style></defs><g
     inkscape:label="Layer 1"
     inkscape:groupmode="layer"
     id="layer1"><g
       style="fill:#000000;stroke:#000000;stroke-width:6.85882;stroke-linecap:butt;stroke-linejoin:round;stroke-dasharray:none;stroke-opacity:1"
       id="g603"
       transform="matrix(0.03662096,0,0,0.04344535,104.80777,33.067782)"><g
         id="g581"
         style="stroke:#000000;stroke-width:6.85882;stroke-linecap:butt;stroke-linejoin:round;stroke-dasharray:none;stroke-opacity:1">
	<g
   id="g579"
   style="stroke:#000000;stroke-width:6.85882;stroke-linecap:butt;stroke-linejoin:round;stroke-dasharray:none;stroke-opacity:1">
		<g
   id="g577"
   style="stroke:#000000;stroke-width:6.85882;stroke-linecap:butt;stroke-linejoin:round;stroke-dasharray:none;stroke-opacity:1">
			<path
   d="M 92.688,0 48,44.688 V 80 H 0 V 192 H 48 V 496 H 496 V 0 Z M 16,176 V 96 h 96 v 80 z M 480,480 H 64 V 192 h 64 v -16 h 16 v -16 h -16 v -48 h 16 V 96 H 128 V 80 H 64 V 51.312 L 99.312,16 H 480 Z"
   id="path553"
   style="fill:#000000;fill-opacity:1;stroke:#000000;stroke-width:6.85882;stroke-linecap:butt;stroke-linejoin:round;stroke-dasharray:none;stroke-opacity:1"
   sodipodi:nodetypes="ccccccccccccccccccccccccccccccccc" />
			<path
   d="m 304,448 h 112 v -16 h 16 v -16 h -16 v -16 h 16 v -16 h -16 v -16 h 16 v -16 h -16 v -16 h 16 v -16 h -16 v -16 h 16 v -16 h -16 v -16 h 16 v -16 h -16 v -16 h 16 v -16 h -16 v -16 h 16 v -16 h -16 v -16 h 16 v -16 h -16 v -16 h 16 v -16 h -16 v -16 h 16 V 96 H 416 V 80 h 16 V 64 H 416 V 48 H 304 v 16 h -16 v 16 h 16 v 16 h -16 v 16 h 16 v 16 h -16 v 16 h 16 v 16 h -16 v 16 h 16 v 16 h -16 v 16 h 16 v 16 h -16 v 16 h 16 v 16 h -16 v 16 h 16 v 16 h -16 v 16 h 16 v 16 h -16 v 16 h 16 v 16 h -16 v 16 h 16 v 16 h -16 v 16 h 16 v 16 h -16 v 16 h 16 z M 320,64 h 80 v 368 h -80 z"
   id="path555"
   style="stroke:#000000;stroke-width:6.85882;stroke-linecap:butt;stroke-linejoin:round;stroke-dasharray:none;stroke-opacity:1" />
			<circle
   cx="360"
   cy="88"
   r="8"
   id="circle557"
   style="stroke:#000000;stroke-width:6.85882;stroke-linecap:butt;stroke-linejoin:round;stroke-dasharray:none;stroke-opacity:1" />
			<path
   d="m 256,64 h -64 v 48 h 64 z M 240,96 H 208 V 80 h 32 z"
   id="path559"
   style="stroke:#000000;stroke-width:6.85882;stroke-linecap:butt;stroke-linejoin:round;stroke-dasharray:none;stroke-opacity:1" />
			<path
   d="m 256,144 h -64 v 48 h 64 z m -16,32 h -32 v -16 h 32 z"
   id="path561"
   style="stroke:#000000;stroke-width:6.85882;stroke-linecap:butt;stroke-linejoin:round;stroke-dasharray:none;stroke-opacity:1" />
			<path
   d="m 144,216 v 16 h -16 v -16 h -16 v 16 H 96 v 48 h 16 v 16 h 16 v -16 h 16 v 16 h 16 v -16 h 16 v 16 h 16 v -16 h 16 v -48 h -16 v -16 h -16 v 16 h -16 v -16 z m 48,32 v 16 h -80 v -16 z"
   id="path563"
   style="stroke:#000000;stroke-width:6.85882;stroke-linecap:butt;stroke-linejoin:round;stroke-dasharray:none;stroke-opacity:1" />
			<path
   d="m 112,400 c -17.648,0 -32,14.352 -32,32 0,17.648 14.352,32 32,32 17.648,0 32,-14.352 32,-32 0,-17.648 -14.352,-32 -32,-32 z m 0,48 c -8.824,0 -16,-7.176 -16,-16 0,-8.824 7.176,-16 16,-16 8.816,0 16,7.176 16,16 0,8.824 -7.184,16 -16,16 z"
   id="path565"
   style="stroke:#000000;stroke-width:6.85882;stroke-linecap:butt;stroke-linejoin:round;stroke-dasharray:none;stroke-opacity:1" />
			<path
   d="m 192,400 c -17.648,0 -32,14.352 -32,32 0,17.648 14.352,32 32,32 17.648,0 32,-14.352 32,-32 0,-17.648 -14.352,-32 -32,-32 z m 0,48 c -8.824,0 -16,-7.176 -16,-16 0,-8.824 7.176,-16 16,-16 8.816,0 16,7.176 16,16 0,8.824 -7.184,16 -16,16 z"
   id="path567"
   style="stroke:#000000;stroke-width:6.85882;stroke-linecap:butt;stroke-linejoin:round;stroke-dasharray:none;stroke-opacity:1" />
			<rect
   x="176"
   y="336"
   width="16"
   height="32"
   id="rect569"
   style="stroke:#000000;stroke-width:6.85882;stroke-linecap:butt;stroke-linejoin:round;stroke-dasharray:none;stroke-opacity:1" />
			<rect
   x="208"
   y="336"
   width="16"
   height="32"
   id="rect571"
   style="stroke:#000000;stroke-width:6.85882;stroke-linecap:butt;stroke-linejoin:round;stroke-dasharray:none;stroke-opacity:1" />
			<rect
   x="240"
   y="336"
   width="16"
   height="32"
   id="rect573"
   style="stroke:#000000;stroke-width:6.85882;stroke-linecap:butt;stroke-linejoin:round;stroke-dasharray:none;stroke-opacity:1" />
			<circle
   cx="96"
   cy="48"
   r="8"
   id="circle575"
   style="stroke:#000000;stroke-width:6.85882;stroke-linecap:butt;stroke-linejoin:round;stroke-dasharray:none;stroke-opacity:1" />
		</g>
	</g>
</g></g><g
       id="g683"
       transform="matrix(0.25472013,0,0,0.29165063,8.4821904,-16.966318)"
       style="stroke-width:0.726854"><path
         class="a"
         d="m 14.668554,182.02221 c -0.013,-32.511 -0.03,-75.6 -0.04,-103.110997 a 9.738,9.738 0 0 1 9.742,-9.743 c 41.976,-0.013 163.607996,-0.054 213.378996,-0.071 a 9.744,9.744 0 0 1 9.75,9.746 c 0,36.899997 0.016,96.834997 0.03,135.017997 7.708,10.832 24.245,33.628 32.332,47.437 a 8.931,8.931 0 0 1 1.219,4.525 c 0,1.409 -0.03,3.115 -0.03,4.876 a 6.766,6.766 0 0 1 -6.765,6.757 H -13.245446 a 5.641,5.641 0 0 1 -5.642,-5.639 c 0,-8.7 -0.032,2.554 -0.032,-5.982 a 8.984,8.984 0 0 1 1.226,-4.545 c 8.1750004,-13.959 24.7780004,-37.473 32.378,-48.142 -0.007,-7.87 -0.011,-18.729 -0.016,-31.126 z"
         id="path609"
         style="stroke-width:0.726854" /><rect
         style="opacity:0.893333;fill:#24272c;fill-opacity:1;fill-rule:evenodd;stroke:none;stroke-width:3.75516;stroke-linecap:round;stroke-linejoin:round;stroke-dasharray:none"
         id="rect1613"
         width="202.17815"
         height="24.168423"
         x="29.668055"
         y="81.842354"
         inkscape:label="rect1613" /><path
         class="b"
         d="m 17.068554,182.02221 q -0.012,-29.748 -0.023,-59.5 -0.006,-14.342 -0.011,-28.682997 0,-6.3 0,-12.6 c 0,-1.826 -0.135,-3.645 0.636,-5.353 a 7.448,7.448 0 0 1 3.68,-3.68 c 2.29,-1.041 5.181,-0.639 7.645,-0.639 h 7.513 17.841 l 43.706,-0.015 49.065996,-0.016 47.308,-0.017 38.589,-0.022 c 2.867,0 6.054,-0.454 8.606,1.1 a 7.262,7.262 0 0 1 3.1,3.913 17.132,17.132 0 0 1 0.376,5.331 q 0,12.561 0,25.120997 0,28.685 0.013,57.368 0,13.972 0.008,27.947 0,6.425 0,12.849 0,3.012 0,6.025 c 0,0.895 -0.062,1.816 0,2.708 a 5.291,5.291 0 0 0 1.359,2.657 c 9.7,13.6 19.586,27.132 28.453,41.3 0.968,1.546 1.964,3.091 2.847,4.687 1.281,2.315 0.882,5.055 0.863,7.6 a 4.647,4.647 0 0 1 -2.166,4.347 5.894,5.894 0 0 1 -3.155,0.595 H -10.556446 c -1.414,0 -3.2,0.274 -4.433,-0.507 -2.158,-1.368 -1.355,-4.111 -1.5,-6.257 -0.18,-2.548 -4.105,-3.438 -4.715,-0.638 a 15.373,15.373 0 0 0 -0.1,1.6 h 4.8 a 13.308,13.308 0 0 1 0.454,-5.888 c 1.056,-2.627 2.987,-5.121 4.494,-7.509 3.4950004,-5.541 7.1310004,-10.993 10.8130004,-16.412 q 5.466,-8.044 11.0709996,-15.994 2.354,-3.35 4.725,-6.688 a 11.487,11.487 0 0 0 1.95,-2.974 c 0.415,-1.507 0.084,-3.552 0.084,-5.1 q -0.006,-13.332 -0.011,-26.663 c 0,-3.089 -4.8,-3.094 -4.8,0 q 0.006,15.562 0.013,31.126 l 0.318,-1.205 c -10.5939996,14.877 -21.2579996,29.805 -30.75,45.419 -1.483,2.439 -2.9,4.762 -3.14,7.684 a 23.7,23.7 0 0 0 -0.03,4.212 2.4,2.4 0 0 0 4.8,0 c 0.046,-0.4 0.2,-1.572 -0.069,-0.322 l -4.711,-0.638 c 0.062,0.886 0.007,1.794 0.007,2.681 a 8.873,8.873 0 0 0 2.1,6.252 c 2.078,2.319 4.858,2.631 7.76,2.631 H 270.97355 a 20.511,20.511 0 0 0 5.938,-0.382 9.368,9.368 0 0 0 5.186,-3.99 c 1.366,-2.2 1.346,-4.579 1.367,-7.079 0.026,-2.964 -0.049,-5.66 -1.529,-8.319 -0.95,-1.708 -2.015,-3.362 -3.054,-5.017 -2.333,-3.716 -4.754,-7.376 -7.209,-11.011 -5.177,-7.666 -10.517,-15.221 -15.888,-22.752 q -3.087,-4.329 -6.18,-8.656 l 0.327,1.211 q -0.009,-26.334 -0.017,-52.668 -0.007,-28.235 -0.012,-56.47 0,-12.288997 0,-24.578997 c 0,-4.2 -1.159,-8.069 -4.571,-10.774 -3.108,-2.46 -6.56,-2.672 -10.349,-2.672 l -37.276,0.013 -46.28,0.016 -48.588,0.017 -44.198996,0.014 -33.219,0.011 c -3.886,0 -7.529,1.1 -10.157,4.12 -2.951,3.393 -3.035,7.281 -3.034,11.541 q 0.006,13.26 0.01,26.519997 l 0.024,59.469 q 0,6.8 0.005,13.6 c 10e-4,3.093 4.801,3.098 4.8,0.004 z"
         id="path613"
         style="stroke-width:0.726854" /><path
         class="b"
         d="M 257.69455,259.64221 H 13.186554 c -3.2999996,0 -6.6099996,-0.059 -9.9119996,0 -0.144,0 -0.288,0 -0.433,0 -3.088,0 -3.094,4.8 0,4.8 H 247.34955 c 3.3,0 6.61,0.059 9.912,0 0.144,0 0.288,0 0.433,0 3.088,0 3.094,-4.8 0,-4.8 z"
         id="path615"
         style="stroke-width:0.726854" /><path
         class="b"
         d="m 25.643554,87.373213 q 0.006,16.753997 0.013,33.507997 0.008,19.428 0.016,38.857 0.007,16.5 0.014,33.01 0,2.955 0,5.908 a 31.814,31.814 0 0 0 0.172,5.785 8.374,8.374 0 0 0 6.894,6.6 40.293,40.293 0 0 0 5.929,0.122 l 26.571,-0.01 33.952,-0.012 37.299996,-0.012 36.556,-0.012 32.214,-0.01 h 13.186 5.6 a 27.9,27.9 0 0 0 6.043,-0.235 8.458,8.458 0 0 0 6.388,-7.635 c 0.239,-3.133 0.021,-6.365 0.019,-9.508 q 0,-10.554 -0.008,-21.107 l -0.018,-45.077 q -0.009,-19.611 -0.017,-39.219997 c 0,-3.5 -1.266,-6.867 -4.614,-8.486 a 13.024,13.024 0 0 0 -5.931,-0.894 h -8.782 l -24.833,0.008 -31.792,0.01 -35.049,0.012 -34.691996,0.01 -30.6,0.01 -23.186,0.007 c -1.891,0 -3.905,-0.177 -5.71,0.468 a 8.512,8.512 0 0 0 -5.635,7.9 c -0.085,3.09 4.715,3.088 4.8,0 0.067,-2.443 2.007,-3.569 4.229,-3.57 h 4.483 10.677 l 27.474,-0.009 32.706996,-0.011 34.561,-0.011 33.035,-0.01 28.134,-0.009 19.853,-0.007 c 1.334,0 2.906,-0.224 4.12,0.383 2.488,1.242 1.953,4.257 1.953,6.559 q 0,9.209 0.008,18.414997 0.009,21.5 0.017,43 l 0.018,42.508 v 4.642 a 19.948,19.948 0 0 1 -0.1,4.326 c -0.56,2.414 -2.755,2.73 -4.837,2.731 h -10.915 l -28.628,0.009 -34.506,0.012 -36.7,0.012 -35.215996,0.012 -30.048,0.01 h -11.984 a 50.65,50.65 0 0 1 -5.066,0 c -2.45,-0.251 -3.223,-2.353 -3.224,-4.484 q -0.006,-13.2 -0.011,-26.41 -0.009,-18.483 -0.016,-36.967 l -0.015,-36.689 q 0,-7.220997 0,-14.441997 c -0.005,-3.085 -4.805,-3.091 -4.803,0.003 z"
         id="path617"
         style="stroke-width:0.726854" /><path
         class="b"
         d="m 124.72779,129.16191 c -14.57273,0.055 -29.145466,-0.007 -43.720636,-0.007 -3.761925,0 -3.768015,4.8 0,4.8 14.57274,0 29.145476,0.062 43.720636,0.007 3.76071,-0.014 3.76802,-4.814 0,-4.8 z"
         id="path631"
         style="stroke-width:0.726854" /><path
         class="b"
         d="M 158.34744,139.68116 H 80.775444 c -3.088999,0 -3.093999,4.8 0,4.8 h 77.571996 c 3.089,0 3.094,-4.8 0,-4.8 z"
         id="path633"
         style="stroke-width:0.726854" /><g
         style="clip-rule:evenodd;fill-rule:evenodd;stroke-width:1.27203;image-rendering:optimizeQuality;shape-rendering:geometricPrecision;text-rendering:geometricPrecision"
         id="g1749"
         transform="matrix(0.04457589,0,0,0.04457589,52.048344,17.811618)" /><g
         style="clip-rule:evenodd;fill-rule:evenodd;stroke-width:3.76872;image-rendering:optimizeQuality;shape-rendering:geometricPrecision;text-rendering:geometricPrecision"
         id="g1841"
         transform="matrix(0.01504533,0,0,0.01504533,35.975799,86.545318)"><g
           id="Layer_x0020_1"
           inkscape:label="Layer 1"
           inkscape:groupmode="layer"
           style="stroke-width:3.76872">
  <metadata
   id="CorelCorpID_0Corel-Layer" />
  <polygon
   class="fil0"
   points="0,803 78,331 400,331 384,424 176,424 161,520 348,521 332,613 145,613 114,803 "
   id="polygon1807"
   style="stroke-width:3.76872" />
  <polygon
   id="1"
   class="fil0"
   points="555,331 477,803 364,803 442,331 "
   style="stroke-width:3.76872" />
  <path
   id="2"
   class="fil0"
   d="M 787,650 820,449 H 933 L 874,803 H 766 l 11,-66 h -3 c -11,21 -27,39 -49,51 -21,13 -45,19 -71,19 -24,0 -44,-5 -61,-16 -16,-11 -28,-27 -35,-47 -7,-20 -8,-43 -4,-70 l 38,-225 h 113 l -34,203 c -3,19 0,34 8,45 8,12 20,17 38,17 11,0 21,-2 31,-7 10,-5 18,-13 25,-22 7,-10 12,-21 14,-35 z"
   style="stroke-width:3.76872" />
  <path
   id="3"
   class="fil0"
   d="m 931,803 59,-354 h 112 l -59,354 z m 123,-396 c -16,0 -29,-5 -39,-16 -10,-10 -14,-23 -12,-37 2,-15 10,-28 23,-38 12,-11 27,-16 43,-16 16,0 29,5 38,16 10,10 14,23 12,38 -2,14 -9,27 -22,38 -13,10 -27,15 -43,15 z"
   style="stroke-width:3.76872" />
  <path
   id="4"
   class="fil0"
   d="m 1229,808 c -27,0 -49,-7 -68,-21 -19,-13 -33,-33 -41,-60 -9,-27 -10,-61 -3,-101 7,-42 19,-76 37,-103 18,-27 38,-46 62,-59 23,-13 47,-20 72,-20 18,0 34,3 46,10 12,6 22,14 29,24 7,10 11,21 14,31 h 3 l 29,-178 h 113 l -78,472 h -112 l 10,-58 h -4 c -6,11 -15,21 -25,31 -11,9 -23,17 -37,23 -14,6 -30,9 -47,9 z m 53,-88 c 13,0 26,-4 37,-12 11,-7 20,-18 28,-33 7,-14 13,-30 16,-49 3,-20 3,-36 0,-50 -3,-14 -8,-25 -17,-32 -8,-8 -20,-12 -33,-12 -14,0 -27,4 -38,12 -10,7 -19,18 -27,32 -7,14 -12,31 -15,50 -3,19 -4,35 -1,49 2,15 8,26 16,33 9,8 20,12 34,12 z"
   style="stroke-width:3.76872" />
  <polygon
   class="fil0"
   points="2258,326 2398,598 2402,598 2447,326 2561,326 2482,798 2386,798 2244,525 2241,525 2195,798 2081,798 2159,326 "
   id="polygon1813"
   style="stroke-width:3.76872" />
  <path
   id="path1815"
   class="fil0"
   d="m 3017,497 h -114 c 1,-12 -1,-23 -4,-32 -2,-10 -7,-18 -13,-25 -7,-6 -14,-12 -24,-15 -9,-4 -20,-6 -33,-6 -23,0 -45,6 -64,18 -20,12 -36,29 -49,51 -13,23 -22,49 -27,80 -5,31 -5,56 0,76 5,20 14,35 28,45 14,10 31,15 52,15 14,0 26,-2 38,-5 12,-3 23,-8 32,-14 10,-7 18,-14 25,-23 7,-9 12,-19 16,-30 h 115 c -6,21 -15,41 -28,62 -13,20 -30,39 -49,55 -20,17 -43,30 -68,40 -26,10 -55,15 -87,15 -43,0 -81,-10 -112,-29 -32,-20 -54,-48 -68,-85 -14,-37 -17,-82 -8,-135 8,-51 25,-94 50,-129 25,-35 55,-62 91,-79 36,-18 74,-27 115,-27 29,0 56,4 79,11 24,8 44,20 60,35 17,15 29,34 37,56 8,22 11,47 10,75 z"
   style="stroke-width:3.76872" />
  <path
   class="fil1"
   d="m 1748,122 c -6,201 20,269 125,419 54,71 83,158 83,247 0,94 -32,185 -90,258 7,-215 -32,-257 -121,-405 -89,-121 -173,-371 3,-519 z"
   id="path1817"
   style="stroke-width:3.76872" />
  <path
   class="fil2"
   d="m 1706,1122 c 15,-129 -80,-211 -125,-309 -10,-23 -15,-47 -15,-72 0,-53 24,-103 65,-136 14,122 104,217 144,331 21,59 15,121 -69,186 z"
   id="path1819"
   style="stroke-width:3.76872" />
  <path
   class="fil2"
   d="m 1953,520 c 21,-128 -69,-217 -109,-315 -8,-20 -12,-42 -12,-63 0,-56 27,-109 72,-142 7,122 92,224 125,339 18,58 11,119 -76,181 z"
   id="path1821"
   style="stroke-width:3.76872" />
 </g></g><rect
         style="opacity:0.893333;fill:#3487fd;fill-opacity:1;fill-rule:evenodd;stroke:none;stroke-width:3.75516;stroke-linecap:round;stroke-linejoin:round;stroke-dasharray:none"
         id="rect2378"
         width="38.11174"
         height="12.289756"
         x="79.697861"
         y="158.04106"
         ry="2.442219" /></g><path
       style="fill:none;stroke:#000000;stroke-width:1.02351;stroke-linecap:butt;stroke-linejoin:miter;stroke-dasharray:none;stroke-opacity:1"
       d="M 73.869379,48.815006 C 113.24637,53.976517 67.051039,35.5227 104.89992,38.765804"
       id="path1463"
       sodipodi:nodetypes="cc" /></g></svg>
