<?xml version="1.0" encoding="UTF-8" standalone="no"?>
<!-- Creator: CorelDRAW X7 -->

<svg
   xml:space="preserve"
   width="48"
   height="48"
   version="1.1"
   style="clip-rule:evenodd;fill-rule:evenodd;image-rendering:optimizeQuality;shape-rendering:geometricPrecision;text-rendering:geometricPrecision"
   viewBox="0 0 397.35936 397.30881"
   id="svg24"
   sodipodi:docname="favicon.svg"
   inkscape:version="1.2.2 (b0a8486, 2022-12-01)"
   xmlns:inkscape="http://www.inkscape.org/namespaces/inkscape"
   xmlns:sodipodi="http://sodipodi.sourceforge.net/DTD/sodipodi-0.dtd"
   xmlns="http://www.w3.org/2000/svg"
   xmlns:svg="http://www.w3.org/2000/svg"><sodipodi:namedview
   id="namedview26"
   pagecolor="#ffffff"
   bordercolor="#666666"
   borderopacity="1.0"
   inkscape:showpageshadow="2"
   inkscape:pageopacity="0.0"
   inkscape:pagecheckerboard="0"
   inkscape:deskcolor="#d1d1d1"
   inkscape:document-units="in"
   showgrid="false"
   inkscape:zoom="3.4177557"
   inkscape:cx="138.24862"
   inkscape:cy="85.728771"
   inkscape:window-width="1722"
   inkscape:window-height="824"
   inkscape:window-x="61"
   inkscape:window-y="25"
   inkscape:window-maximized="0"
   inkscape:current-layer="Layer_x0020_1" />
 <defs
   id="defs4">
  <style
   type="text/css"
   id="style2">
   <![CDATA[
    .fil1 {fill:#005B96}
    .fil2 {fill:#6497B1}
    .fil0 {fill:#F0F0F0;fill-rule:nonzero}
   ]]>
  </style>
 </defs>
 <g
   id="Layer_x0020_1"
   inkscape:label="Layer 1"
   inkscape:groupmode="layer">
  <metadata
   id="CorelCorpID_0Corel-Layer" />
  
  
  
  
  
  
  
  <path
   class="fil1"
   d="m 177.86811,43.206633 c -2.12489,71.184697 7.08299,95.267087 44.26863,148.389997 19.12404,25.14484 29.39437,55.95613 29.39437,87.47572 0,33.29036 -11.33277,65.51825 -31.87342,91.3714 C 222.13674,294.30092 208.32493,279.4265 176.80566,227.0119 145.28638,184.15942 115.53787,95.621236 177.86811,43.206633 Z"
   id="path17"
   style="stroke-width:0.354151" />
  <path
   class="fil2"
   d="m 162.99384,397.35936 c 5.31224,-45.6857 -28.33193,-74.72623 -44.26863,-109.43319 -3.54149,-8.14552 -5.31223,-16.64518 -5.31223,-25.499 0,-18.77009 8.49957,-36.47773 23.01968,-48.16477 4.95808,43.20663 36.83151,76.85114 50.99749,117.22455 7.43714,20.89501 5.31224,42.85248 -24.43631,65.87241 z"
   id="path19"
   style="stroke-width:0.354151" />
  <path
   class="fil2"
   d="m 250.46867,184.15942 c 7.43712,-45.33155 -24.43629,-76.85114 -38.60226,-111.558111 -2.83318,-7.083054 -4.24977,-14.874414 -4.24977,-22.311622 0,-19.832552 9.56201,-38.602647 25.49872,-50.289687 2.47904,43.206633 32.58171,79.330211 44.26863,120.05777 6.37469,20.54086 3.89564,42.14418 -26.91532,64.10165 z"
   id="path21"
   style="stroke-width:0.354151" />
 </g>
</svg>
