<?xml version="1.0" encoding="UTF-8" standalone="no"?>
<svg
   width="24"
   height="24"
   viewBox="0 0 2.4576 2.4576"
   preserveAspectRatio="xMidYMid"
   version="1.1"
   id="svg4"
   sodipodi:docname="wifi.svg"
   inkscape:version="1.2.2 (b0a8486, 2022-12-01)"
   xmlns:inkscape="http://www.inkscape.org/namespaces/inkscape"
   xmlns:sodipodi="http://sodipodi.sourceforge.net/DTD/sodipodi-0.dtd"
   xmlns="http://www.w3.org/2000/svg"
   xmlns:svg="http://www.w3.org/2000/svg">
  <defs
     id="defs8" />
  <sodipodi:namedview
     id="namedview6"
     pagecolor="#ffffff"
     bordercolor="#666666"
     borderopacity="1.0"
     inkscape:showpageshadow="2"
     inkscape:pageopacity="0.0"
     inkscape:pagecheckerboard="0"
     inkscape:deskcolor="#d1d1d1"
     showgrid="false"
     inkscape:zoom="30.675322"
     inkscape:cx="12.045513"
     inkscape:cy="12.746403"
     inkscape:window-width="1442"
     inkscape:window-height="982"
     inkscape:window-x="61"
     inkscape:window-y="25"
     inkscape:window-maximized="0"
     inkscape:current-layer="svg4" />
  <path
     d="M 1.9080096,0.58541576 C 1.7401248,0.40080776 1.4979936,0.28491656 1.2288,0.28491656 c -0.2691936,0 -0.5113248,0.1158912 -0.6792096,0.3004992 H 1.908 Z M 0.5496,1.8200528 c 0.1678848,0.184608 0.410016,0.3004992 0.6792096,0.3004992 0.2691936,0 0.5113248,-0.1158912 0.6792096,-0.3004992 z M 0.4076544,0.66345416 C 0.1825152,0.66345416 0,0.84596936 0,1.0711184 v 0.263232 C 0,1.5594896 0.1825152,1.7420048 0.4076544,1.7420048 H 2.0499456 C 2.2750848,1.7420048 2.4576,1.5594896 2.4576,1.3343504 V 1.0711184 C 2.4576,0.84596936 2.2750848,0.66345416 2.0499456,0.66345416 Z M 2.4156672,1.0664623 c 0,-0.19942094 -0.1616544,-0.36107534 -0.3610656,-0.36107534 h -0.407664 c -0.1994112,0 -0.3610656,0.1616544 -0.3610656,0.36106574 V 1.340168 c 0,0.1994208 -0.1616544,0.3610752 -0.3610656,0.3610752 H 2.054592 c 0.1994113,0 0.3610656,-0.161664 0.3610656,-0.3610752 V 1.0664527 Z M 0.99936,1.090904 V 1.47644 H 1.1158272 V 1.090904 Z M 0.9877056,0.96919496 a 0.0693024,0.0693024 0 1 0 0.1386048,0 0.0693024,0.0693024 0 0 0 -0.1386048,0 z M 0.210816,0.91387973 0.3610656,1.47644 h 0.096672 L 0.5707296,1.0874192 0.6837024,1.4764496 H 0.78386883 L 0.9317952,0.91387976 H 0.8188032 L 0.73262398,1.2842672 0.62546878,0.91387976 H 0.521808 L 0.41464318,1.2749456 0.33312,0.91387976 Z m 1.2602496,0 V 1.47644 h 0.123456 V 1.256312 h 0.279552 V 1.142168 H 1.5945216 V 1.0280238 h 0.298176 V 0.91387976 Z M 1.9765632,1.0909136 v 0.385536 H 2.09304 V 1.0909136 Z M 1.9660682,0.96803336 a 0.0693024,0.0693024 0 1 0 0.1386048,0 0.0693024,0.0693024 0 0 0 -0.1386048,0 z"
     fill-rule="evenodd"
     id="path2"
     style="stroke-width:0.0096;fill:#ffffff" />
</svg>
